<svg xmlns="http://www.w3.org/2000/svg" viewBox="0 0 100 100">
  <defs>
    <linearGradient id="bg" x1="0" y1="0" x2="1" y2="1">
      <stop offset="0%" stop-color="#1a9e8f"/>
      <stop offset="100%" stop-color="#0d7a6e"/>
    </linearGradient>
    <clipPath id="front">
      <rect x="0" y="54" width="100" height="46"/>
    </clipPath>
    <clipPath id="back">
      <rect x="0" y="0" width="100" height="54"/>
    </clipPath>
  </defs>
  <!-- Background -->
  <rect width="100" height="100" rx="22" fill="url(#bg)"/>
  <!-- Back orbit arc -->
  <ellipse cx="50" cy="62" rx="33" ry="9" fill="none" stroke="rgba(255,255,255,0.45)" stroke-width="2.8" clip-path="url(#back)"/>
  <!-- Map pin -->
  <path d="M50 18 C39 18 31 26 31 36 C31 49 50 66 50 66 C50 66 69 49 69 36 C69 26 61 18 50 18 Z" fill="#ffffff"/>
  <!-- Orange dot inside pin -->
  <circle cx="50" cy="36" r="9" fill="#E8603C"/>
  <!-- Front orbit arc -->
  <ellipse cx="50" cy="62" rx="33" ry="9" fill="none" stroke="#ffffff" stroke-width="2.8" clip-path="url(#front)"/>
  <!-- Waypoint dots -->
  <circle cx="17" cy="60" r="3.2" fill="#ffffff"/>
  <circle cx="50" cy="71" r="4.2" fill="#E8603C"/>
  <circle cx="83" cy="60" r="3.2" fill="#ffffff"/>
</svg>
